<svg version="1.1" id="Layer_1" xmlns="http://www.w3.org/2000/svg" xmlns:xlink="http://www.w3.org/1999/xlink" x="0px" y="0px"
	 width="100%" viewBox="0 0 1024 640" enable-background="new 0 0 1024 640" xml:space="preserve">
<path fill="#000000" opacity="1.000000" stroke="none" 
	d="
M299.127563,397.533447 
	C283.369110,400.796112 270.596619,395.074158 258.870270,385.979614 
	C255.454178,383.330200 252.218307,380.424500 249.077942,377.448364 
	C242.474319,371.190125 240.803116,363.833099 243.776093,354.305695 
	C246.731674,355.082947 248.029694,357.817719 250.080734,359.576111 
	C251.596619,360.875732 252.966583,362.383698 254.610184,363.488434 
	C258.363831,366.011414 260.553345,364.925598 260.731323,360.385590 
	C261.161957,349.401489 261.460571,338.412079 261.781769,327.423950 
	C261.872925,324.304382 261.934753,321.195251 264.007416,318.229340 
	C264.408813,321.392456 265.029022,324.545807 265.171234,327.720551 
	C265.625763,337.866638 265.850891,348.022766 266.265503,358.170868 
	C266.585938,366.013611 270.397247,372.062592 276.400482,376.827667 
	C278.395508,378.411163 280.730621,379.677673 283.311707,378.346985 
	C285.759796,377.084869 285.628510,374.557251 285.736023,372.200867 
	C286.054596,365.216827 286.399872,358.233612 286.807831,351.254364 
	C286.900208,349.673859 286.552002,347.869141 288.493958,346.542572 
	C290.688782,350.407562 290.144440,354.576233 290.193054,358.573120 
	C290.254974,363.665771 291.990326,368.019531 295.215332,371.826782 
	C300.001251,377.476715 304.098053,378.249969 310.572754,374.553589 
	C322.112915,367.965363 331.790588,358.968536 341.187714,349.783203 
	C369.557953,322.052368 403.433258,304.460815 441.501678,294.424561 
	C461.536499,289.142670 480.798553,291.637787 499.297852,300.700989 
	C507.072266,304.509796 514.751770,308.513611 522.550903,312.269958 
	C530.120300,315.915680 534.458679,314.622009 539.710938,307.913147 
	C542.901794,303.837372 543.871033,299.087341 544.625366,294.013916 
	C547.108643,297.332611 546.825928,301.106506 547.213745,304.682281 
	C547.571899,307.984100 547.334900,311.372955 547.921265,314.622162 
	C548.771240,319.332184 552.106628,320.924561 556.433289,318.812195 
	C563.420959,315.400696 567.542664,309.915283 567.667908,301.915375 
	C567.839294,290.973907 567.563904,280.012848 569.108215,268.802246 
	C571.577515,269.952179 571.200439,271.910767 571.261292,273.591339 
	C571.659058,284.573181 572.006042,295.556885 572.375000,306.539764 
	C572.487000,309.875305 572.213074,313.553711 575.943970,315.189453 
	C579.428833,316.717316 582.386292,314.825378 585.148010,312.819672 
	C589.801025,309.440430 591.887695,304.893890 592.052917,299.125702 
	C592.453247,285.150269 593.100464,271.181732 593.685486,257.212006 
	C593.729675,256.157684 593.311768,254.828171 594.849304,254.201599 
	C596.782104,255.200974 596.124329,257.071625 596.173035,258.583282 
	C596.591431,271.567505 596.959961,284.553497 597.286682,297.540405 
	C597.486450,305.479980 602.403992,308.223511 609.255432,304.031738 
	C613.959351,301.153809 616.617004,297.003510 616.769165,291.307648 
	C617.111450,278.491455 617.563477,265.678131 617.997559,252.864548 
	C618.063232,250.928497 617.886169,248.905487 619.447021,246.647888 
	C621.151855,250.488541 620.962402,254.088043 621.122192,257.569611 
	C621.526733,266.385498 621.717468,275.210968 622.045898,284.030670 
	C622.338501,291.887878 627.751587,294.967438 634.574768,291.113617 
	C638.928345,288.654694 641.447571,284.939941 641.690674,279.823029 
	C642.069885,271.841644 642.456482,263.860443 642.889893,255.881897 
	C642.986206,254.109222 642.667175,252.182571 644.416992,250.520813 
	C646.236755,251.690002 645.985779,253.570831 646.056641,255.248428 
	C646.190186,258.410767 646.104126,261.584808 646.306519,264.741333 
	C646.770752,271.979797 652.947815,275.504456 659.486023,272.341827 
	C661.928467,271.160339 663.848145,269.303711 665.779175,267.463470 
	C676.149170,257.581177 686.248352,247.409439 697.290161,238.248764 
	C719.398071,219.907272 738.456055,219.197189 761.750549,236.006149 
	C767.433289,240.106720 772.660156,244.775040 777.483582,249.865448 
	C783.571594,256.290558 784.975830,262.933655 782.291626,272.255890 
	C779.848755,272.469208 778.968750,270.347015 777.734253,268.970520 
	C774.167175,264.993225 770.489014,261.135895 766.292908,257.827118 
	C764.645752,256.528290 762.864746,254.731186 760.507263,255.850128 
	C758.194153,256.948059 758.317444,259.350647 758.232483,261.533020 
	C757.850037,271.347565 757.479675,281.162781 757.033508,290.974487 
	C756.954590,292.709106 757.452087,294.697388 755.561279,296.053833 
	C753.186584,294.851715 753.992493,292.587799 753.919739,290.798828 
	C753.540894,281.480225 753.387512,272.152527 753.020874,262.833313 
	C752.708984,254.904907 748.786011,248.865356 742.375610,244.558701 
	C737.353760,241.184875 733.711609,243.217514 733.284363,249.263458 
	C732.897095,254.742996 732.564819,260.226410 732.179810,265.706116 
	C732.089600,266.990601 732.315369,268.419189 730.630859,269.485901 
	C728.657288,268.263397 729.107605,266.169037 729.068665,264.360260 
	C728.984863,260.469543 728.446350,256.740570 726.261841,253.385849 
	C721.308899,245.779526 715.897034,244.455185 708.185059,249.065231 
	C698.371399,254.931549 689.970459,262.616486 682.159973,270.777191 
	C655.496216,298.636475 624.135376,318.954742 587.632263,331.426117 
	C569.934387,337.472626 552.080994,340.278687 533.742920,334.826233 
	C522.193359,331.392181 511.593811,325.729919 500.997192,320.110901 
	C492.080994,315.383026 487.077850,316.845642 481.775024,325.663177 
	C481.038849,326.887329 480.767700,328.503387 478.689575,329.209991 
	C477.343353,325.371338 477.000397,321.500977 476.674805,317.631897 
	C476.074280,310.495453 471.964996,308.336212 465.749573,312.044067 
	C459.713196,315.645050 456.611511,321.067352 456.320557,328.092529 
	C455.976135,336.409912 455.635223,344.727448 455.283752,353.044525 
	C455.237183,354.147217 455.373352,355.345428 454.187836,356.073608 
	C452.177002,355.204742 452.786346,353.491119 452.735168,352.147369 
	C452.329529,341.500519 451.999084,330.850769 451.647186,320.201874 
	C451.383392,312.216888 446.941040,309.806976 440.134521,314.114166 
	C435.193604,317.240784 432.590698,321.749817 432.079681,327.724548 
	C430.955688,340.866150 431.568176,354.038666 430.998016,367.184021 
	C430.916290,369.068695 431.545532,371.193939 429.624512,373.057953 
	C427.538300,371.242584 427.959106,368.829590 427.889465,366.670807 
	C427.481262,354.019440 427.136383,341.365906 426.809875,328.712097 
	C426.730927,325.651520 426.749847,322.539886 423.472870,320.963623 
	C420.075867,319.329620 416.968689,320.371552 414.122711,322.455811 
	C409.693970,325.699188 407.300720,329.895966 407.216400,335.584015 
	C407.016479,349.070374 406.548859,362.552979 406.152435,376.035980 
	C406.101318,377.773346 406.517334,379.721680 404.729950,381.042480 
	C402.510376,379.821411 403.153229,377.790527 403.094086,376.095154 
	C402.681671,364.278076 402.309052,352.459259 402.010742,340.638824 
	C401.923431,337.180084 401.697266,333.938843 398.024628,332.201996 
	C394.349792,330.464111 391.184265,331.824005 388.196381,333.827301 
	C384.325745,336.422302 382.526764,340.170807 382.273315,344.814545 
	C382.046875,348.962982 381.579773,353.098846 381.185699,357.237122 
	C381.076447,358.384674 380.996185,359.606079 379.556702,360.044525 
	C378.175232,359.283813 378.236755,357.848755 378.007233,356.580719 
	C376.438538,347.914948 369.275146,345.174835 362.251221,350.620087 
	C352.625214,358.082642 344.088989,366.775421 334.992065,374.834412 
	C325.268188,383.448792 315.522095,392.123535 302.916962,396.507751 
	C301.820465,396.889130 300.671631,397.120026 299.127563,397.533447 
z"/>
<path fill="#000000" opacity="1.000000" stroke="none" 
	d="
M439.694336,407.766174 
	C426.141785,416.115784 412.033966,421.799072 396.275116,422.199799 
	C380.261169,422.607025 366.817078,416.144257 355.049316,405.800018 
	C347.397095,399.073486 340.940948,391.216644 334.368896,383.457947 
	C330.146759,378.473511 335.035126,376.913452 337.267212,374.352905 
	C339.841309,371.400085 341.754364,372.977783 343.678986,375.380585 
	C345.443634,377.583710 347.495026,379.559021 349.442017,381.613892 
	C352.229309,384.555542 355.592957,385.679871 359.408081,384.113708 
	C363.246124,382.538147 365.450653,379.594452 365.752014,375.313141 
	C365.885132,373.421936 365.355377,371.242096 367.463898,369.905182 
	C369.032837,371.106598 368.949707,372.864288 369.083588,374.473083 
	C369.510925,379.608673 369.909241,384.748505 370.196289,389.893524 
	C370.593323,397.010071 373.235748,400.524719 378.550415,400.778259 
	C383.738556,401.025787 388.941650,396.379547 389.625580,390.523346 
	C390.184601,385.737091 390.467926,380.909088 390.652618,376.091156 
	C390.875885,370.266846 390.827911,364.432587 390.983032,358.604919 
	C391.024811,357.036316 390.581451,355.230255 392.689453,353.854553 
	C394.033203,357.945435 393.990387,362.033295 394.157440,366.056335 
	C394.565002,375.870300 394.783905,385.692047 395.188751,395.506165 
	C395.494751,402.924652 400.751831,405.845490 407.128479,402.105652 
	C411.916168,399.297791 414.520172,395.008606 414.674683,389.396820 
	C415.050415,375.750732 415.361328,362.102875 415.755646,348.457367 
	C415.805908,346.718170 415.181335,344.768250 417.064972,343.079895 
	C419.090729,344.495056 418.287720,346.660461 418.348877,348.396606 
	C418.805969,361.376129 419.180542,374.358948 419.493530,387.342865 
	C419.569275,390.485077 419.926666,393.517731 422.971558,395.093994 
	C426.171753,396.750610 429.179230,395.358185 431.857605,393.536469 
	C436.594635,390.314575 438.819763,385.790253 438.997131,380.002899 
	C439.410126,366.528259 440.045532,353.060364 440.619568,339.590973 
	C440.660431,338.631989 440.935669,337.682983 441.130951,336.562866 
	C443.638824,337.686523 442.945740,339.768433 443.021942,341.383667 
	C443.500366,351.524078 443.895111,361.669098 444.219604,371.815735 
	C444.313629,374.756256 444.485962,377.624634 447.463989,379.118225 
	C450.250153,380.515625 452.694458,378.986328 454.909149,377.542053 
	C460.390137,373.967560 463.642181,369.057770 463.841827,362.278687 
	C464.067169,354.628937 464.502350,346.985077 464.879181,339.340271 
	C464.984253,337.208832 465.075867,335.051910 466.474823,332.775635 
	C468.329987,336.546997 468.126709,340.286652 468.306213,343.978180 
	C468.443268,346.797058 468.394867,350.017883 471.403412,351.369995 
	C474.450226,352.739319 477.290497,351.166351 479.725037,349.295502 
	C484.455536,345.660339 487.153900,340.369354 490.477570,335.609680 
	C493.049927,331.925903 495.277771,328.003265 497.793915,324.278107 
	C500.528656,320.229370 503.068512,323.829529 505.502533,324.778992 
	C507.979279,325.745117 507.707367,327.594574 506.436462,329.663879 
	C493.531067,350.676849 480.680359,371.733643 463.008606,389.258850 
	C456.018433,396.191101 448.459625,402.457916 439.694336,407.766174 
z"/>
<path fill="#000000" opacity="1.000000" stroke="none" 
	d="
M541.303955,276.284058 
	C534.039124,285.247253 527.674316,294.432556 522.150757,304.128998 
	C519.487122,308.804993 516.916382,307.194275 513.611328,305.471893 
	C509.641052,303.402924 511.860840,301.205505 513.209167,299.002563 
	C526.438843,277.387054 539.764832,255.835419 558.267212,238.127960 
	C569.806946,227.084030 582.756592,218.148911 597.576904,212.018616 
	C624.901062,200.716293 649.050232,205.553070 669.980103,226.333801 
	C674.821289,231.140488 679.165466,236.445938 683.974365,241.287445 
	C688.274353,245.616486 684.106262,247.461090 681.883118,250.098007 
	C679.485352,252.942200 677.669128,252.798523 675.039490,250.100693 
	C668.133240,243.015259 664.445007,243.577927 656.667847,252.506027 
	C654.769348,251.420654 655.007751,249.488327 654.884521,247.790451 
	C654.679565,244.967514 654.776123,242.114563 654.439697,239.310944 
	C653.594482,232.266693 650.029480,228.296051 644.973145,228.495621 
	C639.477600,228.712524 634.544189,234.137878 634.244507,240.394028 
	C633.854187,248.543625 633.539062,256.696777 633.164429,264.847168 
	C633.083313,266.612885 633.338806,268.496979 631.602234,270.379517 
	C629.957031,267.051361 630.072693,263.807190 629.950439,260.660309 
	C629.582275,251.175735 629.366821,241.685333 629.020264,232.199814 
	C628.759766,225.068802 623.740662,222.182968 617.401001,225.529251 
	C612.952209,227.877441 610.301453,231.621216 610.046997,236.669357 
	C609.376709,249.967728 608.896667,263.275635 608.283386,276.577087 
	C608.188477,278.636658 608.914246,280.904419 606.263794,283.649994 
	C605.814575,278.367889 605.224915,273.955475 605.106506,269.530426 
	C604.839233,259.538849 604.758362,249.541306 604.701904,239.545624 
	C604.683228,236.236954 604.351685,233.180984 601.140198,231.330399 
	C597.740417,229.371368 594.936157,231.367584 592.364990,233.052643 
	C587.584595,236.185501 585.396912,240.830383 585.182739,246.579178 
	C584.656189,260.713562 583.983093,274.842590 583.328857,288.971924 
	C583.280334,290.018982 583.692017,291.356537 581.978638,292.025513 
	C580.319946,290.696350 580.892822,288.736328 580.832581,287.058228 
	C580.426331,275.742035 580.081421,264.423462 579.767273,253.104263 
	C579.691223,250.363510 579.558960,247.624512 576.888245,246.086426 
	C573.951233,244.394928 571.379272,245.993622 569.017029,247.561325 
	C563.529785,251.202911 560.534302,256.326630 560.257446,262.979645 
	C559.863037,272.458740 559.457458,281.937531 558.997742,291.413605 
	C558.912415,293.171448 559.243713,295.131683 557.472961,296.460663 
	C555.400696,295.286224 556.028687,293.258698 555.911072,291.544800 
	C555.592163,286.896729 555.075806,282.231293 555.214783,277.589996 
	C555.427429,270.490692 549.594666,269.704468 544.900818,273.043304 
	C543.689270,273.905121 542.660034,275.023315 541.303955,276.284058 
z"/>
<path fill="#000000" opacity="1.000000" stroke="none" 
	d="
M748.580444,316.254333 
	C751.740967,320.635834 755.444336,324.007660 759.088928,327.416626 
	C760.248779,328.501556 761.650024,329.984039 763.458496,329.190399 
	C765.317322,328.374634 764.903076,326.360779 764.969727,324.750153 
	C765.554810,310.615234 766.097351,296.478577 766.667175,282.343018 
	C766.711182,281.251801 766.448792,280.049866 767.493896,279.078186 
	C769.420288,280.604187 769.127991,282.720642 769.185059,284.620758 
	C769.609558,298.764526 770.173340,312.909332 770.249512,327.056244 
	C770.292297,335.007751 772.379578,342.174347 778.235962,347.334595 
	C785.536438,353.767303 782.643372,361.409668 782.911621,368.599457 
	C780.994446,369.464233 780.369202,368.540771 779.718567,367.834015 
	C760.317688,346.760498 739.225647,327.278412 720.644653,305.445221 
	C710.611084,293.655518 701.135376,281.392120 691.337891,269.399750 
	C687.267273,264.417206 692.779175,263.296631 694.747253,260.939209 
	C697.168579,258.038910 699.013794,259.988159 700.666138,262.213226 
	C702.452759,264.619141 704.258972,267.026428 706.251831,269.258789 
	C708.188354,271.427948 710.570862,273.093048 713.696533,272.374115 
	C716.536743,271.720856 716.704529,269.164154 717.149658,266.863434 
	C717.304504,266.063354 717.555237,265.231903 719.054382,264.810455 
	C721.177673,269.222931 720.991821,274.252289 720.812927,278.720551 
	C720.396606,289.117096 727.342834,294.566193 733.657837,300.625244 
	C734.983948,301.897614 736.800964,302.693115 738.715881,301.857391 
	C740.772766,300.959747 740.705933,298.983551 740.738464,297.138489 
	C740.908875,287.483917 740.574219,277.813416 741.664307,268.188110 
	C741.791809,267.062073 741.493591,265.819885 742.603149,264.916931 
	C744.712524,265.397064 744.154419,267.202606 744.221069,268.526855 
	C744.864990,281.323608 745.473755,294.122528 745.999207,306.924622 
	C746.131226,310.140076 746.417908,313.241486 748.580444,316.254333 
z"/>
<path fill="#000000" opacity="1.000000" stroke="none" 
	d="
M260.614990,292.366150 
	C258.832611,290.722717 257.779388,288.560516 254.636230,288.763000 
	C252.083374,305.012390 254.252670,321.653259 251.626862,338.146362 
	C249.063995,337.038483 249.769638,335.132507 249.730759,333.643341 
	C249.326797,318.168610 248.910034,302.693115 248.705780,287.215057 
	C248.650726,283.043457 247.688919,279.224640 245.376541,275.915833 
	C240.887787,269.492859 243.282333,262.663940 243.039795,256.058136 
	C245.452255,255.497879 246.013306,256.978210 246.843201,257.897034 
	C274.751465,288.795044 302.548889,319.770630 326.735260,353.793640 
	C330.341034,358.865936 327.175079,360.105133 324.356781,362.751709 
	C320.684662,366.200134 319.274963,363.314575 317.468903,360.885742 
	C315.184113,357.813080 312.936218,354.709351 310.547058,351.719177 
	C309.081757,349.885284 307.321411,347.994293 304.705109,348.662140 
	C302.350647,349.263092 302.358490,351.603851 302.092255,353.592010 
	C301.980347,354.428009 301.704529,355.216675 300.352264,355.531219 
	C298.154022,353.809174 298.598602,351.048462 298.894623,348.878235 
	C300.706085,335.597748 291.957642,327.681793 284.193268,319.254608 
	C283.212463,318.190063 281.877289,317.078949 280.234741,317.738312 
	C278.344635,318.497040 278.412476,320.355927 278.365509,322.012756 
	C278.091980,331.659912 278.489075,341.330200 277.347473,350.947144 
	C277.195801,352.224670 277.658630,353.642120 276.307739,354.870789 
	C273.893005,353.792358 274.839752,351.529419 274.748840,349.817108 
	C274.131683,338.193970 273.315948,326.567505 273.212830,314.936371 
	C273.153595,308.255859 270.934021,303.042999 266.163544,298.593903 
	C264.224487,296.785492 262.607269,294.632050 260.614990,292.366150 
z"/>
</svg>